<svg width="233" height="170" viewBox="0 0 233 170" fill="none" xmlns="http://www.w3.org/2000/svg">
<path d="M0 0H34.5502V13.2263H15.2957V156.106H34.5502V169.332H0V0Z" fill="#403EFF"/>
<path d="M197.854 156.106H217.019V13.2263H197.854V0H232.404V169.332H197.854V156.106Z" fill="#403EFF"/>
<path fill-rule="evenodd" clip-rule="evenodd" d="M157.83 56.5022L85.8996 128.432L75.0415 117.574L146.972 45.6441L157.83 56.5022Z" fill="#403EFF"/>
<path fill-rule="evenodd" clip-rule="evenodd" d="M85.9841 57.5567L83.0154 56.2825L89.0721 42.1718L92.0408 43.446C110.497 51.3681 131.473 50.9498 149.599 42.2981L152.907 49.2271L160.038 52.0722C152.203 71.7105 152.203 93.6066 160.038 113.245L145.775 118.935C138.477 100.641 136.911 80.694 141.078 61.6905C122.911 66.4393 103.516 65.0819 85.9841 57.5567Z" fill="#403EFF"/>
</svg>
